<?xml version="1.0" encoding="utf-8"?>
<!-- Generator: Adobe Illustrator 25.2.0, SVG Export Plug-In . SVG Version: 6.00 Build 0)  -->
<svg version="1.1" id="Layer_1" xmlns="http://www.w3.org/2000/svg" xmlns:xlink="http://www.w3.org/1999/xlink" x="0px" y="0px"
	 viewBox="0 0 660.2 739.7" style="enable-background:new 0 0 660.2 739.7;" xml:space="preserve">
<style type="text/css">
	.st0{fill:#FFFFFF;}
	.st1{fill:#707070;}
</style>
<g id="Layer_2_1_">
	<g id="Layer_1-2">
		<path class="st0" d="M163,415.2c-4.4,6.1-8.9,11.7-12.8,17.8c-9.9,15.7-15,33-16.3,51.4c-0.1,1.7-1.5,3.5-2.7,5
			c-1.5,1.8-3.9,3-4.9,5c-2.8,5.2-7.5,8-12.1,11.2c-17.4,12.2-28.3,29.5-36.9,48.4c-0.8,1.4-1.1,3.1-1,4.7c1.2,5.9-1.6,11-3.2,16.2
			c-7.3,22.8-9.1,46.9-5.1,70.5c2.2,12.8,10.4,19.7,22.6,24.2c9.4,3.5,18.7,3.5,28.2,3.5s16.3-6.8,16.5-15.6
			c0.1-8.6-7-15.4-16.6-15.3c-6.9,0-13.9,0.3-20.8,0.7c-3.7,0.2-3.8-2.5-3.9-4.6c-0.4-8.8-1.6-17.8-0.6-26.5
			c1.3-10.9,4.3-21.7,6.7-32.5c0.3-1.4,1-3.2,2-3.8c5.2-3,7.4-8.2,10-13.2c5-9.8,11-18.9,19.6-26.1c10.4-8.7,19-8.7,29.4-0.1
			c8.8,7.3,14.7,16.8,20.1,26.8c1.9,3.4,4.7,6.3,7.1,9.4c0.8,0.9,1.5,1.8,2,2.9c7.8,20.4,10.1,41.5,7.7,63.2
			c-0.4,3.4-1.4,4.5-5.3,4.2c-7.1-0.6-14.2-0.6-21.3-0.1c-7.2,0.4-13,6.9-13.6,14.2s4.2,15,11.4,15.8c10.4,1.2,21.2,3.3,31.1-2.7
			c0.4-0.2,0.8-0.4,1.2-0.5c16.1-3.9,22-15.5,23.5-30.6c2.5-24.4-0.7-49-9.1-72c-0.7-1.8-0.5-4-0.7-6c-0.3-2.9,0.2-6.2-0.9-8.7
			c-8.5-19.1-19.6-36.5-37.8-47.5c-7.3-4.4-10.6-12.1-17.5-16.4c-0.6-0.4-0.7-2.2-0.6-3.2c2.7-31.3,18-54.4,45.1-69.9
			c2.6-1.5,3.7,0.1,5.2,1.5l65.4,61.3l52.1,48.8c1.1,1,2.2,2,3.6,3.2c8.8-8.2,17.5-16.4,26.2-24.5c30.9-28.9,61.7-57.9,92.5-86.8
			c2.3-2.2,3.9-2.6,6.7-0.8c22.5,14,38.4,39.2,39.9,63.6l-4.5,1.6c-26,9.1-40.9,37-33.9,63.4c7.1,26.9,33.8,44,60.8,39
			c27.5-5.1,46.9-30.5,43.4-58.1c-2.8-22.6-15.7-37.7-37.4-45c-2.8-0.9-3.9-2-4.2-5c-2.5-21.6-11.5-41.9-25.7-58.4
			c-1.5-1.6-2.8-3.4-3.8-5.4c5.8,1.6,11.7,2.9,17.4,4.9c82.9,29.1,133,86.7,149.4,173c4.2,22,4.2,44.6,0.1,66.6
			c-6.9,37.5-29.4,60.8-65.6,71.5c-22.5,6.6-45.5,8.9-68.8,9.5c-26.9,0.7-53.8,0.7-80.7,0.8c-90.8,0.1-181.6,0.1-272.4,0
			c-27.8,0-55.6-0.6-83-6c-9-1.8-17.8-4.2-26.5-7.2c-33.2-11.9-52-35.9-57.6-70.3C-12.1,565.7,37,472.3,120.7,431
			C134.2,424.2,148.4,418.9,163,415.2z M391.3,653.8v29.5c0,5.5,1.7,7.2,7.1,7.2h25.3c7.3,0,8.4-1.1,8.4-8.5v-28.2h29.7
			c5.4,0,7.2-1.8,7.2-7.2c0.1-8,0-16,0-24c0-8.7-0.9-9.7-9.6-9.7h-27.3v-29.7c0-5.4-1.8-7.2-7.2-7.2h-24.4c-8.1,0-9.2,1.2-9.2,9.2
			V613h-29.8c-5.3,0-6.9,1.7-7,6.9c0,8.7,0,17.4,0,26.2c0,6.3,1.5,7.7,7.9,7.8L391.3,653.8z"/>
		<path class="st0" d="M330.2,0c103.9,0.2,188,84.6,187.9,188.6c-0.2,104.1-84.6,188-189.1,187.7c-103.8-0.3-187.5-84.8-187.2-189.1
			C142.1,83.9,226.8-0.2,330.2,0z"/>
		<path class="st0" d="M508,557.4c-13.5-0.5-24.1-11.9-23.6-25.4c0.5-12.8,10.7-23,23.5-23.6c0.5,0,1,0,1.5,0
			c13.5,0.8,23.9,12.4,23.1,25.9C531.7,547.2,521,557.4,508,557.4z"/>
		<path class="st1" d="M391.3,653.8h-28.8c-6.4,0-7.9-1.5-7.9-7.8v-26.2c0-5.2,1.7-6.8,7-6.9c9.7,0,19.5,0,29.8,0v-27.7
			c0-8,1.2-9.2,9.2-9.2H425c5.4,0,7.2,1.8,7.2,7.2c0,9.7,0,19.4,0,29.7h27.3c8.7,0,9.6,0.9,9.6,9.7c0,8,0,16,0,24
			c0,5.4-1.9,7.2-7.2,7.2h-29.7V682c0,7.4-1.1,8.5-8.4,8.5h-25.3c-5.4,0-7.1-1.7-7.1-7.2C391.3,673.7,391.3,664.1,391.3,653.8z"/>
	</g>
</g>
</svg>
