<svg xmlns="http://www.w3.org/2000/svg" viewBox="0 0 660.23 739.73"><defs><style>.cls-1{fill:#707070;}.cls-2{fill:#fff;}</style></defs><g id="Layer_2" data-name="Layer 2"><g id="Layer_1-2" data-name="Layer 1"><path class="cls-1" d="M163,415.2c-4.41,6.1-8.95,11.74-12.78,17.82-9.89,15.69-15,33-16.34,51.44-.12,1.73-1.49,3.52-2.66,5-1.47,1.82-3.87,3-4.93,5-2.77,5.22-7.47,8-12.05,11.22-17.36,12.23-28.31,29.46-36.86,48.45a8.52,8.52,0,0,0-1,4.71c1.15,5.91-1.55,11-3.2,16.24a148.58,148.58,0,0,0-5.09,70.51c2.19,12.77,10.43,19.71,22.58,24.15,9.43,3.45,18.68,3.54,28.2,3.47s16.33-6.76,16.47-15.64c.14-8.63-7-15.38-16.57-15.34-6.93,0-13.86.31-20.77.73-3.68.22-3.81-2.49-3.91-4.64-.44-8.85-1.58-17.83-.58-26.55,1.26-10.93,4.31-21.66,6.7-32.45.31-1.36,1-3.15,2-3.76,5.24-3,7.39-8.23,10-13.24,5-9.81,11-18.93,19.57-26.07,10.4-8.66,19-8.72,29.44-.14,8.84,7.29,14.71,16.83,20.1,26.78,1.85,3.41,4.73,6.27,7.11,9.39a12.55,12.55,0,0,1,2,2.87c7.83,20.41,10.07,41.51,7.73,63.19-.37,3.41-1.38,4.55-5.3,4.18a143.8,143.8,0,0,0-21.27-.12c-7.16.41-13,6.86-13.56,14.18s4.25,15,11.45,15.79c10.4,1.18,21.18,3.35,31.09-2.65a4.93,4.93,0,0,1,1.24-.49c16.07-3.87,22-15.54,23.51-30.59a161.55,161.55,0,0,0-9.13-72c-.66-1.82-.48-4-.66-5.95-.27-2.91.23-6.16-.89-8.69-8.48-19.06-19.6-36.45-37.77-47.5-7.27-4.41-10.62-12.1-17.52-16.42-.65-.41-.74-2.16-.65-3.25,2.68-31.26,18-54.38,45.11-69.88,2.6-1.49,3.74.07,5.23,1.47l65.38,61.29,52.12,48.84c1.06,1,2.17,2,3.56,3.2,8.8-8.23,17.52-16.37,26.23-24.53q46.29-43.38,92.53-86.82c2.3-2.17,3.88-2.56,6.72-.78,22.45,14,38.42,39.18,39.89,63.65L491,482.85c-26,9.14-40.87,37-33.88,63.4,7.13,26.9,33.8,44,60.8,39,27.51-5.08,46.89-30.47,43.43-58.06-2.84-22.64-15.71-37.73-37.39-45-2.76-.93-3.87-2-4.24-5A108.09,108.09,0,0,0,494,418.83a21.63,21.63,0,0,1-3.76-5.43c5.8,1.6,11.73,2.86,17.4,4.85,82.88,29.07,133,86.68,149.44,173a179.9,179.9,0,0,1,.09,66.64c-6.91,37.52-29.36,60.81-65.62,71.47-22.46,6.6-45.54,8.92-68.76,9.53-26.9.7-53.82.73-80.73.76q-136.21.14-272.41,0c-27.8,0-55.64-.56-83-6a187,187,0,0,1-26.46-7.2C27,714.58,8.14,690.57,2.57,656.19-12.09,565.7,37,472.29,120.65,431A212.66,212.66,0,0,1,163,415.2ZM391.31,653.76c0,10.31,0,19.91,0,29.51,0,5.47,1.73,7.19,7.1,7.21,8.42,0,16.85,0,25.28,0,7.34,0,8.41-1.1,8.42-8.52v-28.2c10.25,0,20,0,29.7,0,5.37,0,7.19-1.84,7.22-7.21.06-8,0-16,0-23.95,0-8.74-.9-9.65-9.62-9.65H432.12c0-10.29,0-20,0-29.73,0-5.43-1.76-7.16-7.18-7.2-8.13,0-16.26,0-24.39,0s-9.22,1.18-9.23,9.23V613c-10.31,0-20,0-29.76,0-5.29,0-6.92,1.65-6.95,6.88-.05,8.72,0,17.44,0,26.17,0,6.3,1.5,7.74,7.91,7.75Z"/><path class="cls-1" d="M330.24,0c103.94.2,188,84.62,187.87,188.59-.16,104.13-84.62,188-189.06,187.7-103.83-.29-187.48-84.8-187.21-189.12C142.11,83.94,226.79-.2,330.24,0Z"/><path class="cls-1" d="M508,557.41a24.52,24.52,0,1,1,1.34-49,24.52,24.52,0,0,1-1.34,49Z"/><path class="cls-2" d="M391.31,653.76H362.5c-6.41,0-7.89-1.45-7.91-7.75,0-8.73,0-17.45,0-26.17,0-5.23,1.66-6.85,6.95-6.88,9.73-.05,19.45,0,29.76,0V585.24c0-8,1.19-9.23,9.23-9.23s16.26,0,24.39,0c5.42,0,7.16,1.77,7.18,7.2.05,9.72,0,19.44,0,29.73h27.32c8.72,0,9.62.91,9.62,9.65,0,8,.05,16,0,23.95,0,5.37-1.85,7.18-7.22,7.21-9.72,0-19.45,0-29.7,0V682c0,7.42-1.08,8.51-8.42,8.52-8.43,0-16.86,0-25.28,0-5.37,0-7.08-1.74-7.1-7.21C391.28,673.67,391.31,664.07,391.31,653.76Z"/></g></g></svg>