<svg xmlns="http://www.w3.org/2000/svg" width="1984.591" height="503.576" viewBox="0 0 1984.591 503.576">
  <g id="Skyline" transform="translate(0.033 -234)" opacity="0.6">
    <rect id="Retângulo_20" data-name="Retângulo 20" width="1298.317" height="94.9" transform="translate(-0.033 585.087)" fill="#c7dcf0"/>
    <g id="Grupo_24" data-name="Grupo 24" transform="translate(497.076 306.405)">
      <rect id="Retângulo_21" data-name="Retângulo 21" width="100.095" height="334.099" transform="translate(58.61)" fill="#c7dcf0"/>
      <rect id="Retângulo_22" data-name="Retângulo 22" width="67.543" height="88.151" transform="translate(0 245.948)" fill="#c7dcf0"/>
      <rect id="Retângulo_23" data-name="Retângulo 23" width="100.095" height="257.33" transform="translate(147.205 76.77)" fill="#c7dcf0"/>
    </g>
    <g id="Grupo_25" data-name="Grupo 25" transform="translate(1006.23 234)">
      <rect id="Retângulo_24" data-name="Retângulo 24" width="100.098" height="406.505" fill="#c7dcf0"/>
      <rect id="Retângulo_25" data-name="Retângulo 25" width="100.098" height="387.168" transform="translate(66.206 36.23)" fill="#c7dcf0"/>
      <rect id="Retângulo_26" data-name="Retângulo 26" width="185.426" height="230.22" transform="translate(157.387 193.178)" fill="#c7dcf0"/>
    </g>
    <rect id="Retângulo_27" data-name="Retângulo 27" width="152.085" height="292.227" transform="translate(1461.875 365.171)" fill="#c7dcf0"/>
    <path id="Caminho_2" data-name="Caminho 2" d="M301.8,243.5s-71.851,14.363-71.851,40.738V630.67H301.8Z" transform="translate(683.211 26.73)" fill="#c7dcf0"/>
    <g id="Grupo_26" data-name="Grupo 26" transform="translate(1369.923 358.21)">
      <rect id="Retângulo_28" data-name="Retângulo 28" width="37.562" height="238.514" transform="translate(18.896 77.776)" fill="#c7dcf0"/>
      <rect id="Retângulo_29" data-name="Retângulo 29" width="74.426" height="28.856" transform="translate(0 48.92)" fill="#c7dcf0"/>
      <rect id="Retângulo_30" data-name="Retângulo 30" width="58.2" height="48.919" transform="translate(8.461)" fill="#c7dcf0"/>
      <rect id="Retângulo_31" data-name="Retângulo 31" width="13.679" height="13.922" transform="translate(5.217)" fill="#c7dcf0"/>
      <rect id="Retângulo_32" data-name="Retângulo 32" width="13.679" height="13.922" transform="translate(5.217 34.998)" fill="#c7dcf0"/>
      <rect id="Retângulo_33" data-name="Retângulo 33" width="13.683" height="13.922" transform="translate(56.458)" fill="#c7dcf0"/>
      <rect id="Retângulo_34" data-name="Retângulo 34" width="13.683" height="13.922" transform="translate(56.458 34.998)" fill="#c7dcf0"/>
    </g>
    <g id="Grupo_27" data-name="Grupo 27" transform="translate(780.34 376.28)">
      <path id="Caminho_3" data-name="Caminho 3" d="M267.807,564.018V368.862a14.5,14.5,0,0,0-14.7-14.294,14.9,14.9,0,0,0-10.4,4.188,14.051,14.051,0,0,0-4.3,10.106V564.018H196.447l23.519-278.57h66.285l23.519,278.57Z" transform="translate(-196.447 -231.52)" fill="#95b9d9"/>
      <path id="Caminho_4" data-name="Caminho 4" d="M231.863,332.734V299.062l-15.278-1.171v1.426h-5.346l-1.738-6.236s-3.609-.259-4.942-1.3-4.213-2.532-3.008-2.986,5.613.973,5.213,0-2.808-.843-2.2-1.167a11.757,11.757,0,0,1,4.275,0c.467.191,3.542.972,3.742.972s13.43-1.175,13.43-1.175,5.28-2.2,5.476-2.139.937-.713,1.2-1.3a11.5,11.5,0,0,1,2.2-2.014s-.4-11.041,3.475-10.656,4.546,2.475,5.079,4.939.067,4.485.733,5.2,2.408,2.922,2.542,3.7,2.6.519,5.68,1.884,12.426,1.689,14.9,1.232,2.071.828,2.071.828,2.808-1.217,4.322-1.041.4.694,0,.694-1.738.389-1.247.648,5.3-.389,5.389.477-2.271,3.814-3.609,3.814-5.837-.393-5.837-.393-.22,6.281-.843,6.624-17.639-.214-17.639-.214v33.717Z" transform="translate(-182.374 -271.307)" fill="#95b9d9"/>
    </g>
    <rect id="Retângulo_35" data-name="Retângulo 35" width="1298.319" height="94.9" transform="translate(686.239 585.087)" fill="#95b9d9"/>
    <g id="Grupo_28" data-name="Grupo 28" transform="translate(0.033 430.266)">
      <path id="Caminho_5" data-name="Caminho 5" d="M.043,403.3l2.609-.369L507.7,331.493v-5.43L.043,373.132" transform="translate(0.188 -171.224)" fill="#809fba"/>
      <rect id="Retângulo_36" data-name="Retângulo 36" width="9.691" height="303.512" transform="translate(112.851 0.372)" fill="#809fba"/>
      <rect id="Retângulo_37" data-name="Retângulo 37" width="9.687" height="303.512" transform="translate(153.192 0.372)" fill="#809fba"/>
      <rect id="Retângulo_38" data-name="Retângulo 38" width="4.39" height="137.533" transform="translate(423.511 78.855)" fill="#809fba"/>
      <rect id="Retângulo_39" data-name="Retângulo 39" width="4.392" height="137.533" transform="translate(441.79 78.855)" fill="#809fba"/>
      <path id="Caminho_6" data-name="Caminho 6" d="M.426,363.393l-.439-.8c.894-.465,89.812-46.764,112.463-77.1l.757.534C90.426,316.526,1.325,362.928.426,363.393Z" transform="translate(0.025 -285.387)" fill="#809fba"/>
      <path id="Caminho_7" data-name="Caminho 7" d="M.447,367.332l-.463-.782c.926-.515,92.942-52.157,113.738-78.925l.745.542C93.553,315.084,1.376,366.817.447,367.332Z" transform="translate(0.016 -279.38)" fill="#809fba"/>
      <path id="Caminho_8" data-name="Caminho 8" d="M.433,395.1l-.447-.8c1.051-.549,104.909-55.356,116.194-72.552l.1-.111,44.374-35.3.588.7L116.925,322.3C105.319,339.757,4.713,392.844.433,395.1Z" transform="translate(0.022 -283.001)" fill="#809fba"/>
      <path id="Caminho_9" data-name="Caminho 9" d="M.433,387l-.447-.793c1.028-.545,102.838-54.46,117.335-70.8l.086-.073,43.268-29.873.541.736-43.225,29.835C103.251,332.555,4.626,384.788.433,387Z" transform="translate(0.022 -285.463)" fill="#809fba"/>
      <path id="Caminho_10" data-name="Caminho 10" d="M225.194,452.873c-19.659,0-55.749-27.047-107.407-80.527C77.26,330.391,41.77,286.96,41.417,286.518l.726-.557c1.416,1.735,141.8,173.174,186,165.771,44.272-7.418,93.848-88.235,94.346-89.043l.8.454c-.5.82-50.3,81.991-94.985,89.481A18.928,18.928,0,0,1,225.194,452.873Z" transform="translate(121.1 -284.062)" fill="#809fba"/>
      <path id="Caminho_11" data-name="Caminho 11" d="M223.685,449.655c-24.958,0-62.661-26.483-112.15-78.8-38.346-40.532-69.807-82.277-70.121-82.693l.749-.542c.314.419,31.748,42.13,70.058,82.632,50.627,53.507,90.208,80.6,114.44,78.357,30.646-2.837,55.051-25.548,70.133-44.1a215.4,215.4,0,0,0,25.676-40.056l.847.374a216.444,216.444,0,0,1-25.782,40.227c-15.2,18.695-39.8,41.577-70.784,44.449C225.752,449.609,224.728,449.655,223.685,449.655Z" transform="translate(121.092 -279.38)" fill="#809fba"/>
      <path id="Caminho_12" data-name="Caminho 12" d="M239.237,457.254c-.318,0-.628,0-.945-.008-26.359-.389-69.238-29.324-127.447-86C67.537,329.086,31.5,286.487,31.133,286.06l.722-.576c.361.427,36.376,43,79.652,85.138,57.208,55.7,101.061,85.34,126.8,85.721.306.008.62.011.93.011,31.987,0,55.4-24.789,69.466-45.7a216.024,216.024,0,0,0,23.319-46.535l.883.275a217.052,217.052,0,0,1-23.409,46.737C295.3,432.236,271.64,457.254,239.237,457.254Z" transform="translate(91.046 -285.404)" fill="#809fba"/>
      <path id="Caminho_13" data-name="Caminho 13" d="M242.4,453.072c-28.7,0-72.486-27.093-130.275-80.611-44.88-41.577-81.861-84.425-82.229-84.856l.714-.58c.369.427,37.318,43.248,82.163,84.783,59.276,54.9,105.352,82.644,133.237,80.207,35.961-3.123,59-27.329,72-47.088a163.819,163.819,0,0,0,19.8-42.6l.906.221a165.09,165.09,0,0,1-19.926,42.863c-13.113,19.927-36.361,44.338-72.694,47.5Q244.292,453.07,242.4,453.072Z" transform="translate(87.44 -281.065)" fill="#809fba"/>
      <path id="Caminho_28" data-name="Caminho 28" d="M0,0,59.834.829l.051,3.683L.051,3.683Z" transform="matrix(0.64, -0.769, 0.769, 0.64, 117.711, 59.169)" fill="#809fba"/>
      <path id="Caminho_29" data-name="Caminho 29" d="M0,0,3.682.05l.8,58.076L.8,58.076Z" transform="matrix(0.776, -0.63, 0.63, 0.776, 117.71, 10.789)" fill="#809fba"/>
      <path id="Caminho_30" data-name="Caminho 30" d="M0,0,59.83.828l.051,3.68L.051,3.68Z" transform="translate(117.731 104.905) rotate(-50.284)" fill="#809fba"/>
      <path id="Caminho_31" data-name="Caminho 31" d="M0,0,3.68.05l.8,58.074L.8,58.074Z" transform="matrix(0.776, -0.63, 0.63, 0.776, 117.712, 56.511)" fill="#809fba"/>
      <path id="Caminho_32" data-name="Caminho 32" d="M0,0,59.832.829l.051,3.681L.051,3.681Z" transform="translate(117.71 150.608) rotate(-50.233)" fill="#809fba"/>
      <path id="Caminho_33" data-name="Caminho 33" d="M0,0,3.682.05l.8,58.076L.8,58.076Z" transform="translate(117.711 102.23) rotate(-39.08)" fill="#809fba"/>
      <path id="Caminho_14" data-name="Caminho 14" d="M201.075,377.458c-33.67.011-70.96-58.255-76.616-67.415l-14.3,16.719-1.428-1.152,15.992-18.71.667,1.118c.428.713,43.268,71.328,78.538,67.484l.208,1.792A26.42,26.42,0,0,1,201.075,377.458Z" transform="translate(317.817 -225.145)" fill="#809fba"/>
      <path id="Caminho_34" data-name="Caminho 34" d="M0,0,1.84.025l.312,22.619-1.84-.025Z" transform="matrix(0.776, -0.631, 0.631, 0.776, 426.537, 81.872)" fill="#809fba"/>
      <path id="Caminho_35" data-name="Caminho 35" d="M0,0,23.305.323l.025,1.84L.025,1.84Z" transform="matrix(0.64, -0.768, 0.768, 0.64, 426.531, 120.916)" fill="#809fba"/>
      <path id="Caminho_36" data-name="Caminho 36" d="M0,0,1.841.025l.342,24.917L.342,24.917Z" transform="matrix(0.785, -0.619, 0.619, 0.785, 426.529, 102.329)" fill="#809fba"/>
      <path id="Caminho_37" data-name="Caminho 37" d="M0,0,23.3.323l.025,1.839L.025,1.839Z" transform="matrix(0.639, -0.769, 0.769, 0.639, 426.547, 141.394)" fill="#809fba"/>
      <path id="Caminho_15" data-name="Caminho 15" d="M124.809,337.4l-16.08-18.882,1.434-1.151,16.084,18.886Z" transform="translate(317.814 -195.707)" fill="#809fba"/>
      <path id="Caminho_38" data-name="Caminho 38" d="M0,0,23.305.323l.025,1.84L.025,1.84Z" transform="matrix(0.641, -0.768, 0.768, 0.641, 426.53, 183.339)" fill="#809fba"/>
      <path id="Caminho_39" data-name="Caminho 39" d="M0,0,1.838.025l.337,24.354L.337,24.354Z" transform="translate(426.544 164.766) rotate(-39.562)" fill="#809fba"/>
      <path id="Caminho_40" data-name="Caminho 40" d="M0,0,23.3.323l.025,1.84L.025,1.84Z" transform="matrix(0.64, -0.768, 0.768, 0.64, 426.533, 202.738)" fill="#809fba"/>
      <path id="Caminho_16" data-name="Caminho 16" d="M125.454,354.338,108.728,334.6l1.436-1.147,16.726,19.739Z" transform="translate(317.813 -150.435)" fill="#809fba"/>
      <path id="Caminho_41" data-name="Caminho 41" d="M0,0,59.832.829l.051,3.681L.051,3.681Z" transform="matrix(0.64, -0.769, 0.769, 0.64, 117.712, 248.411)" fill="#809fba"/>
      <path id="Caminho_42" data-name="Caminho 42" d="M0,0,3.68.05l.8,58.076L.8,58.076Z" transform="translate(117.712 200.032) rotate(-39.08)" fill="#809fba"/>
      <path id="Caminho_43" data-name="Caminho 43" d="M0,0,59.825.828l.051,3.678L.051,3.678Z" transform="matrix(0.638, -0.77, 0.77, 0.638, 117.749, 293.018)" fill="#809fba"/>
      <path id="Caminho_44" data-name="Caminho 44" d="M0,0,3.681.05l.8,58.075L.8,58.075Z" transform="translate(117.71 244.61) rotate(-39.085)" fill="#809fba"/>
      <path id="Caminho_17" data-name="Caminho 17" d="M186.282,379.163c-25.617,0-70.717-69.608-72.647-72.61l.788-.477c.471.732,46.755,72.186,71.859,72.186.3,0,.6-.011.9-.034l.067.9C186.929,379.152,186.608,379.163,186.282,379.163Z" transform="translate(332.151 -227.461)" fill="#809fba"/>
      <rect id="Retângulo_57" data-name="Retângulo 57" width="0.931" height="132.195" transform="translate(17.352 68.081)" fill="#809fba"/>
      <rect id="Retângulo_58" data-name="Retângulo 58" width="0.929" height="144.903" transform="translate(37.624 55.373)" fill="#809fba"/>
      <rect id="Retângulo_59" data-name="Retângulo 59" width="0.933" height="161.29" transform="translate(63.689 38.986)" fill="#809fba"/>
      <rect id="Retângulo_60" data-name="Retângulo 60" width="0.931" height="180.511" transform="translate(90.374 19.765)" fill="#809fba"/>
      <rect id="Retângulo_61" data-name="Retângulo 61" width="0.929" height="170.254" transform="translate(186.259 30.022)" fill="#809fba"/>
      <rect id="Retângulo_62" data-name="Retângulo 62" width="0.933" height="142.583" transform="translate(209.841 57.693)" fill="#809fba"/>
      <rect id="Retângulo_63" data-name="Retângulo 63" width="0.931" height="105.183" transform="translate(234.044 83.328)" fill="#809fba"/>
      <rect id="Retângulo_64" data-name="Retângulo 64" width="0.929" height="88.595" transform="translate(251.733 99.916)" fill="#809fba"/>
      <rect id="Retângulo_65" data-name="Retângulo 65" width="0.929" height="67.381" transform="translate(271.238 121.13)" fill="#809fba"/>
    </g>
    <path id="Caminho_18" data-name="Caminho 18" d="M867.366,416.19v89.47A12.106,12.106,0,0,0,855.795,517.6v35.163H848.42V517.6a11.737,11.737,0,0,0-3.609-8.466,12.354,12.354,0,0,0-8.708-3.508A12.111,12.111,0,0,0,823.827,517.6v35.163h-7.374V517.6a11.737,11.737,0,0,0-3.609-8.466,12.417,12.417,0,0,0-8.708-3.508A12.121,12.121,0,0,0,791.82,517.6v35.163h-7.374V517.6a11.726,11.726,0,0,0-3.612-8.466,12.331,12.331,0,0,0-8.7-3.508A12.111,12.111,0,0,0,759.852,517.6v35.163h-7.374V517.6a11.737,11.737,0,0,0-3.609-8.466,12.487,12.487,0,0,0-8.708-3.508A12.121,12.121,0,0,0,727.845,517.6v35.163h-7.374V517.6a11.737,11.737,0,0,0-3.609-8.466,12.417,12.417,0,0,0-8.708-3.508A12.145,12.145,0,0,0,695.839,517.6v35.163H688.5V517.6a11.738,11.738,0,0,0-3.609-8.466,12.488,12.488,0,0,0-8.708-3.508A12.121,12.121,0,0,0,663.871,517.6v35.163H650.182V517.6a11.9,11.9,0,0,0-3.608-8.466,12.488,12.488,0,0,0-8.708-3.508A12.12,12.12,0,0,0,625.549,517.6v35.163h-51.54v-123.3a22.473,22.473,0,0,0-.471-4.615,2.862,2.862,0,0,0-.078-.572c-1.687-13.768-13.768-24.446-28.4-24.446-15.807,0-28.634,12.471-28.634,27.84a5.483,5.483,0,0,0,.039.8,8.392,8.392,0,0,0-.039.992v123.3h-51.54V517.6a12.121,12.121,0,0,0-12.316-11.975,12.417,12.417,0,0,0-8.708,3.508,11.738,11.738,0,0,0-3.609,8.466v35.163H426.565V517.6a12.145,12.145,0,0,0-12.316-11.975,12.417,12.417,0,0,0-8.708,3.508,11.722,11.722,0,0,0-3.609,8.466v35.163h-7.374V517.6a12.111,12.111,0,0,0-12.277-11.975,12.348,12.348,0,0,0-8.708,3.508,11.741,11.741,0,0,0-3.612,8.466v35.163h-7.37V517.6a12.145,12.145,0,0,0-12.316-11.975,12.417,12.417,0,0,0-8.708,3.508,11.738,11.738,0,0,0-3.609,8.466v35.163h-7.374V517.6a12.111,12.111,0,0,0-12.277-11.975,12.347,12.347,0,0,0-8.708,3.508,11.737,11.737,0,0,0-3.609,8.466v35.163h-7.374V517.6A12.145,12.145,0,0,0,286.3,505.622a12.417,12.417,0,0,0-8.708,3.508,11.737,11.737,0,0,0-3.609,8.466v35.163h-7.374V517.6a12.12,12.12,0,0,0-12.316-11.975,12.488,12.488,0,0,0-8.708,3.508,11.86,11.86,0,0,0-3.569,8.466v35.163h-7.374V517.6A12.106,12.106,0,0,0,223.07,505.66V416.19H436.018c1.726-1.869,4.158-4.348,5.021-4.424,1.412-.076,2.706,1.792,3.448,0A73.936,73.936,0,0,1,449,404.672H450.3s-2.746-3.471-2.746-3.661h.039a17.2,17.2,0,0,0,2.707,1.182l9.963-4.31s0-3.737.981-4.882,3.766,2.4,3.84,3.242c.121.8,3.573,1.64,4.122,2.479.51.839.745-7.627.745-8.886V342.89h10.708v-4.882h30.634s.2-.229.549-.572c.981-1.068,3.059-3.547,2.55-5.225-.628-2.174-5.687-5.225-4.942-6.14.741-.953,7.845-4.691,8.708-6.369s2.667-.725,2.04-3.776c-.628-3.013-2.236-8.772-1.059-8.123,1.177.61,4.276,5.835,4.589,5.835.353,0,2.04-3.013.981-5.911-1.059-2.86.745-3.394,1.608-3.585.863-.229,3.53.61,3.766,2.822.2,2.174-1.059,5.949,1.177,5.53s3.962-6.369,4.2-6.674c.2-.343,2.236,3.013,1.608,4.043.471-.61,1.922-2.593,2.667-3.432,1.1-1.144,3.021,1.792,2.275-1.678-.745-3.432,1.922-5.3-.667-5.644a12.328,12.328,0,0,1-3.412-.725s-10,3.356-11.61,1.869c-1.608-1.449.745-4.271,4.079-2.9,3.33,1.335,6.982-1.258,8.825-3.356,1.8-2.059,3.295-5.3,6-4.805,2.667.534.314-1.869,0-3.318-.314-1.487,1.059-5.873,2.9-4.31,1.8,1.6,3.53,1.793,2.471,3.585-1.1,1.754-1.726,3.318-1.181,3.966.514.61,3.652.725,4.083,2.593s5.805,7.094,8.59,7.208,4.825-2.1,5.452.42c.667,2.517-7.413.725-10.2-.305-2.785-1.068-2.044,6.255-.628,7.818,1.373,1.564,1.608,1.373,1.922,3.127.314,1.793-.118,6.064,2.471,3.966s3.53-3.318,3.53-4.157-.078-4.386,2.275-3.89c2.353.534,2.236,4.309,2.236,4.309s2.706-.839,3.334,1.564c.667,2.4.863,3.737,1.844,4.577.941.839,1.922-.305,2.354,2.517a22.16,22.16,0,0,0,1.608,6.14,1.344,1.344,0,0,1-.745,2.1c-.863.114.667.953.981,1.373s-.549,1.64.745,3.966c1.294,2.288,2.55,1.869,1.8,3.432a2.878,2.878,0,0,1-2.471,1.564c.314.343.549.572.549.572h30.634v4.882h10.708v46.947c0,1.259.235,9.725.745,8.886.549-.839,4-1.678,4.079-2.479.118-.839,2.9-4.386,3.883-3.242.941,1.144.941,4.882.941,4.882l10,4.31a17.192,17.192,0,0,0,2.707-1.182h.039c0,.191-2.746,3.661-2.746,3.661h1.295a73.337,73.337,0,0,1,4.511,7.093c.745,1.792,2.04-.076,3.412,0,.9.076,3.295,2.555,5.06,4.424Z" transform="translate(667.451 132.901)" fill="#809fba"/>
    <rect id="Retângulo_66" data-name="Retângulo 66" width="1984.463" height="57.59" transform="translate(0.096 679.987)" fill="#6e859c"/>
    <g id="Grupo_29" data-name="Grupo 29" transform="translate(1503.921 448.962)">
      <rect id="Retângulo_67" data-name="Retângulo 67" width="66.938" height="228.965" transform="translate(0 5.371)" fill="#6e859c"/>
      <rect id="Retângulo_68" data-name="Retângulo 68" width="4.432" height="8.998" fill="#6e859c"/>
      <rect id="Retângulo_69" data-name="Retângulo 69" width="4.44" height="8.998" transform="translate(10.415)" fill="#6e859c"/>
      <rect id="Retângulo_70" data-name="Retângulo 70" width="4.436" height="8.998" transform="translate(20.83)" fill="#6e859c"/>
      <rect id="Retângulo_71" data-name="Retângulo 71" width="4.432" height="8.998" transform="translate(31.253)" fill="#6e859c"/>
      <rect id="Retângulo_72" data-name="Retângulo 72" width="4.432" height="8.998" transform="translate(41.668)" fill="#6e859c"/>
      <rect id="Retângulo_73" data-name="Retângulo 73" width="4.436" height="8.998" transform="translate(52.083)" fill="#6e859c"/>
      <rect id="Retângulo_74" data-name="Retângulo 74" width="4.439" height="8.998" transform="translate(62.498)" fill="#6e859c"/>
      <rect id="Retângulo_75" data-name="Retângulo 75" width="66.938" height="228.965" transform="translate(126.708 5.371)" fill="#6e859c"/>
      <rect id="Retângulo_76" data-name="Retângulo 76" width="4.435" height="8.998" transform="translate(126.708)" fill="#6e859c"/>
      <rect id="Retângulo_77" data-name="Retângulo 77" width="4.436" height="8.998" transform="translate(137.127)" fill="#6e859c"/>
      <rect id="Retângulo_78" data-name="Retângulo 78" width="4.436" height="8.998" transform="translate(147.542)" fill="#6e859c"/>
      <rect id="Retângulo_79" data-name="Retângulo 79" width="4.432" height="8.998" transform="translate(157.961)" fill="#6e859c"/>
      <rect id="Retângulo_80" data-name="Retângulo 80" width="4.436" height="8.998" transform="translate(168.38)" fill="#6e859c"/>
      <rect id="Retângulo_81" data-name="Retângulo 81" width="4.439" height="8.998" transform="translate(178.791)" fill="#6e859c"/>
      <rect id="Retângulo_82" data-name="Retângulo 82" width="4.432" height="8.998" transform="translate(189.214)" fill="#6e859c"/>
      <rect id="Retângulo_83" data-name="Retângulo 83" width="66.945" height="151.677" transform="translate(64.716 82.658)" fill="#6e859c"/>
      <rect id="Retângulo_84" data-name="Retângulo 84" width="4.435" height="9.002" transform="translate(64.72 77.291)" fill="#6e859c"/>
      <rect id="Retângulo_85" data-name="Retângulo 85" width="4.432" height="9.002" transform="translate(75.142 77.291)" fill="#6e859c"/>
      <rect id="Retângulo_86" data-name="Retângulo 86" width="4.436" height="9.002" transform="translate(85.554 77.291)" fill="#6e859c"/>
      <rect id="Retângulo_87" data-name="Retângulo 87" width="4.436" height="9.002" transform="translate(95.972 77.291)" fill="#6e859c"/>
      <rect id="Retângulo_88" data-name="Retângulo 88" width="4.436" height="9.002" transform="translate(106.392 77.291)" fill="#6e859c"/>
      <rect id="Retângulo_89" data-name="Retângulo 89" width="4.436" height="9.002" transform="translate(116.807 77.291)" fill="#6e859c"/>
      <rect id="Retângulo_90" data-name="Retângulo 90" width="4.436" height="9.002" transform="translate(127.225 77.291)" fill="#6e859c"/>
      <path id="Caminho_19" data-name="Caminho 19" d="M435.511,338.413a19.033,19.033,0,1,1-19.028-18.5A18.767,18.767,0,0,1,435.511,338.413Z" transform="translate(-319.027 -207.226)" fill="#809fba"/>
      <path id="Caminho_20" data-name="Caminho 20" d="M445.424,356.787v47.653c0,.324-.012.648-.027.961H396.029c-.008-.313-.016-.637-.016-.961V356.787c0-13.275,11.065-24.023,24.7-24.023a25.006,25.006,0,0,1,17.47,7.029A23.6,23.6,0,0,1,445.424,356.787Z" transform="translate(-323.256 -171.066)" fill="#809fba"/>
    </g>
    <path id="Caminho_21" data-name="Caminho 21" d="M124.756,555.323V536.967L114.33,519.584l-1.985-1.934,1.239-1.209-5.3-5.145s-.741-5.873,0-5.873h2.236v-26.73s-1.989-.156-1.491-1.449,3.314-1.281,3.314-1.281-.333-8.535,6.452-10.629.173-.8.173-.8l-.173-2.738,3.479-5.949s-1.82-1.533-1.906-2.9,2.149-2.654,2.149-2.654-.741-5.313,1.412-4.836,1.33,4.836,1.33,4.836,3.056,1.606,2.977,2.17-2.738,3.058-2.738,3.058l5.134,6.518,1.157-.16-.659-1.766-.91-.408,4.22-6.281v-1.972s-1.322-1.045-1.161-2.124,1.789-1.533,1.789-1.533-.42-5.069.573-5.069,2.565,4.828,2.565,4.828,1.408.522,1.33,1.327a16.481,16.481,0,0,1-1.247,3.1l.953,2.536,3.687,4.87-1.824,2.33s9.979,2.818,10.1,8.375v3.135l1.369.248v2.292l-2.361-.366,1.491,10.026,43.833-4.233-.577-6.918s-.992-1.7-.745-2.5,1.322-1.2,1.322-1.2a12.936,12.936,0,0,1,6.707-11.109,51.362,51.362,0,0,1,4.887-9.416v-2.658s-2.153.08-2.4-1.857c-.247-1.922,2.4-1.2,2.4-1.2s-.832-6.6.828-6.437,2.232,5.637,2.232,5.637,2.734.08,2.569,1.926-2.4,1.773-2.4,1.773l.247,2.818,4.97,7.322v2.014s7.037,2.094,7.782,11.346c0,0,1.82-.24,2.067,1.045s-1.569,1.7-1.569,1.7v16.414h6.578V482.4h12.917v7.6H249.8v-7.967s.624-8.935,6.464-12.8v-2.776l4.091-4.1v-1.7s-2.044-1.388-1.612-2.048a2.72,2.72,0,0,1,1.612-.847s.188-2.174,1.49-1.926,1.369,2.772,1.369,2.772,1.553.183,1.369.786-1.188.847-1.188.847l.318,2.353,4.1,4.527v1.5s5.958,3.024,6.951,11.6h3.977V460.662l-5.958-7.837h1.738V425.092h-1.659l8.986-10.3v-26.2l-8.2-7.368V362.993h5.091v8.573h3.107v-8.573h7.692v-30.3l-2.977-4.466,1.616-1.205V308.144s-1.738-1.529-1.322-2.1a2.072,2.072,0,0,1,.906-.721s.828-6.2,5.385-7.246v-2.33h.867v-2.235s-1.369-.423-1.243-.721,2.11-.606,2.11-.606-.561-5.553.561-5.133,1.365,5.251,1.365,5.251.808.187.871.423-.314.843-.314.843l-.063,2.418.686.423V297.8a9.354,9.354,0,0,1,4.844,7.067l.93.118,6.578-5.915s-1.424-.969-.934-1.567a3.931,3.931,0,0,1,.934-.85v-2.292s-1.549-.359-1.114-.725a2.88,2.88,0,0,1,1.114-.48s-.306-4.466.937-4.409,2.044.126,2.361,4.1v.545s.741.3.769.633-.894.877-.894.877l.184,2.14s.808.423.71.934a10.173,10.173,0,0,1-.31,1.178l8.6,6.857v8.928h4.66v-3.982h-1.055l2.11-5.373,3.228,4.95-.867.183v4.1h2.977v-5.366H332.5l2.546-5.076,3.169,5.015h-1.181v4.763h5.523v-5.252l-1.549-.358,2.357-4.107,2.361,4.344-.934.122v4.832l5.841-.244v-4.588l-1.369-.3,2.977-5.008,3.169,5.366-1.49-.114-.184,4.226,5.032-.057-.318-14.008-1.24-.309s4.142-6.338,7.249-8.871c0,0-.706-1.129-.541-1.247s.828-.927,1.031-.927,0-1.011,0-1.011-1.694-.233-1.283-.919-.286-1.407.5-1.2a7.141,7.141,0,0,0,.879.2l-.337-4.512h2.146l.745,4.466s.792.08.792.324a9.545,9.545,0,0,1-.581,1.491l-.29,2.208s.788.042.871.568a4.388,4.388,0,0,1,0,1.087s4.879,2.975,5.382,7a40.98,40.98,0,0,1,0,8.348l2.812-2.776,2.734,2.841,3.04-2.235,2.295,3.2,3.169-2.231,2.232,3.013,3.358-1.686,2.236,3.135,2.106-2.231,2.546,2.6,3.165-2.174,1.93,2.113,2.663-1.323,2.424,2.589,1.49.122v-3.52s-.992-.809-.7-1.488,1.361-.808,1.361-.808.745-5.595,5.3-8.081l.918-.648V294.3s-1.491.324-1.369-.4.118-1.129.29-1.129,1.079.05,1.079.05.161-5.118.537-5.08.781-.038.985.164.918,5.068.918,5.068.494,0,.573.244a3.458,3.458,0,0,1,0,.961l-.7.042.459,1.571s5.335,1.571,6.531,9.214c0,0,.745,0,.792.244s.251,1.449-.537,1.564c-.792.13,0,20.445,0,20.445l.886.305.314,1.449-2.977,3.985v28.912l10.508.08v1.731l-1.032.038v7.654l2.15.156v-8.489l6.805-.172v1.777l-1.671.061-.4,6.823-.157,9.416-5.962,6.884.812,18.474v45.635s5.958,3.619,6.08,9.538,0,28.858,0,28.858l-1.239,17.745,1.49-1.812h36.549v47.729Z" transform="translate(321.788 130.028)" fill="#6e859c"/>
    <path id="Caminho_22" data-name="Caminho 22" d="M80,312.526" transform="translate(233.889 220.951)" fill="none" stroke="#95b9d9" stroke-miterlimit="10" stroke-width="3"/>
    <rect id="Retângulo_91" data-name="Retângulo 91" width="245.151" height="70.45" transform="translate(1739.408 576.386)" fill="#fff"/>
    <g id="Grupo_30" data-name="Grupo 30" transform="translate(1748.545 278.686)">
      <path id="Caminho_23" data-name="Caminho 23" d="M469.3,559.89c-.224-.435-22.44-44.022-28.131-101.613-3.35-33.858-.428-65.886,8.692-95.187,11.406-36.661,32.568-69.109,62.9-96.449l2.385,2.5c-67.658,60.974-75.679,136.329-70.49,188.814,5.629,56.958,27.555,99.977,27.775,100.4Z" transform="translate(-439.829 -186.843)" fill="#95b9d9"/>
      <rect id="Retângulo_92" data-name="Retângulo 92" width="64.907" height="27.631" transform="translate(45.761 120.861)" fill="#95b9d9"/>
      <rect id="Retângulo_93" data-name="Retângulo 93" width="48.628" height="17.735" transform="translate(52.579 104.488)" fill="#95b9d9"/>
      <rect id="Retângulo_94" data-name="Retângulo 94" width="8.661" height="49.806" transform="translate(73.356 59.457)" fill="#95b9d9"/>
      <rect id="Retângulo_95" data-name="Retângulo 95" width="1.318" height="57.081" transform="translate(76.895 3.74)" fill="#95b9d9"/>
      <path id="Caminho_24" data-name="Caminho 24" d="M492.227,269.7c-10.818-12.955-21.64,12.951-32.458,0v-20.24c10.818,12.951,21.64-12.955,32.458,0Z" transform="translate(-381.558 -245.717)" fill="#95b9d9"/>
      <rect id="Retângulo_96" data-name="Retângulo 96" width="15.896" height="245.282" transform="translate(69.161 127.002)" fill="#95b9d9"/>
      <rect id="Retângulo_97" data-name="Retângulo 97" width="55.439" height="3.411" transform="translate(16.519 328.843)" fill="#95b9d9"/>
      <rect id="Retângulo_98" data-name="Retângulo 98" width="66.214" height="3.404" transform="translate(5.744 288.821)" fill="#95b9d9"/>
      <rect id="Retângulo_99" data-name="Retângulo 99" width="68.535" height="3.415" transform="translate(3.422 244.691)" fill="#95b9d9"/>
      <rect id="Retângulo_100" data-name="Retângulo 100" width="68.535" height="3.415" transform="translate(3.422 206.826)" fill="#95b9d9"/>
      <rect id="Retângulo_101" data-name="Retângulo 101" width="68.531" height="3.408" transform="translate(15.707 166.406)" fill="#95b9d9"/>
      <rect id="Retângulo_102" data-name="Retângulo 102" width="68.531" height="3.411" transform="translate(32.676 130.302)" fill="#95b9d9"/>
      <rect id="Retângulo_103" data-name="Retângulo 103" width="19.19" height="2.957" transform="translate(82.017 152.927)" fill="#95b9d9"/>
      <rect id="Retângulo_104" data-name="Retângulo 104" width="19.19" height="2.961" transform="translate(82.017 158.384)" fill="#95b9d9"/>
      <rect id="Retângulo_105" data-name="Retângulo 105" width="19.19" height="2.953" transform="translate(82.017 163.847)" fill="#95b9d9"/>
      <rect id="Retângulo_106" data-name="Retângulo 106" width="19.19" height="2.961" transform="translate(82.017 169.3)" fill="#95b9d9"/>
      <rect id="Retângulo_107" data-name="Retângulo 107" width="19.19" height="2.957" transform="translate(82.017 174.759)" fill="#95b9d9"/>
      <rect id="Retângulo_108" data-name="Retângulo 108" width="19.19" height="2.957" transform="translate(82.017 180.219)" fill="#95b9d9"/>
      <rect id="Retângulo_109" data-name="Retângulo 109" width="19.19" height="2.953" transform="translate(82.017 185.679)" fill="#95b9d9"/>
      <rect id="Retângulo_110" data-name="Retângulo 110" width="19.19" height="2.957" transform="translate(82.017 191.135)" fill="#95b9d9"/>
      <rect id="Retângulo_111" data-name="Retângulo 111" width="19.19" height="2.957" transform="translate(82.017 196.595)" fill="#95b9d9"/>
      <rect id="Retângulo_112" data-name="Retângulo 112" width="19.19" height="2.957" transform="translate(82.017 202.052)" fill="#95b9d9"/>
      <rect id="Retângulo_113" data-name="Retângulo 113" width="19.19" height="2.953" transform="translate(82.017 207.511)" fill="#95b9d9"/>
      <rect id="Retângulo_114" data-name="Retângulo 114" width="19.19" height="2.957" transform="translate(82.017 212.968)" fill="#95b9d9"/>
      <rect id="Retângulo_115" data-name="Retângulo 115" width="19.19" height="2.953" transform="translate(82.017 218.427)" fill="#95b9d9"/>
      <rect id="Retângulo_116" data-name="Retângulo 116" width="19.19" height="2.953" transform="translate(82.017 223.887)" fill="#95b9d9"/>
      <rect id="Retângulo_117" data-name="Retângulo 117" width="19.19" height="2.957" transform="translate(82.017 229.343)" fill="#95b9d9"/>
      <rect id="Retângulo_118" data-name="Retângulo 118" width="19.19" height="2.957" transform="translate(82.017 234.803)" fill="#95b9d9"/>
      <rect id="Retângulo_119" data-name="Retângulo 119" width="19.19" height="2.957" transform="translate(82.017 240.259)" fill="#95b9d9"/>
      <rect id="Retângulo_120" data-name="Retângulo 120" width="19.19" height="2.957" transform="translate(82.017 245.719)" fill="#95b9d9"/>
      <rect id="Retângulo_121" data-name="Retângulo 121" width="19.19" height="2.957" transform="translate(82.017 251.175)" fill="#95b9d9"/>
      <rect id="Retângulo_122" data-name="Retângulo 122" width="19.19" height="2.957" transform="translate(82.017 256.636)" fill="#95b9d9"/>
      <rect id="Retângulo_123" data-name="Retângulo 123" width="19.19" height="2.961" transform="translate(82.017 262.091)" fill="#95b9d9"/>
      <rect id="Retângulo_124" data-name="Retângulo 124" width="19.19" height="2.957" transform="translate(82.017 267.552)" fill="#95b9d9"/>
      <rect id="Retângulo_125" data-name="Retângulo 125" width="19.19" height="2.957" transform="translate(82.017 273.011)" fill="#95b9d9"/>
      <rect id="Retângulo_126" data-name="Retângulo 126" width="19.19" height="2.953" transform="translate(82.017 278.468)" fill="#95b9d9"/>
      <rect id="Retângulo_127" data-name="Retângulo 127" width="19.19" height="2.957" transform="translate(82.017 283.924)" fill="#95b9d9"/>
      <rect id="Retângulo_128" data-name="Retângulo 128" width="19.19" height="2.961" transform="translate(82.017 289.384)" fill="#95b9d9"/>
      <rect id="Retângulo_129" data-name="Retângulo 129" width="19.19" height="2.953" transform="translate(82.017 294.843)" fill="#95b9d9"/>
      <rect id="Retângulo_130" data-name="Retângulo 130" width="19.19" height="2.961" transform="translate(82.017 300.3)" fill="#95b9d9"/>
      <rect id="Retângulo_131" data-name="Retângulo 131" width="19.19" height="2.953" transform="translate(82.017 305.759)" fill="#95b9d9"/>
      <rect id="Retângulo_132" data-name="Retângulo 132" width="19.19" height="2.961" transform="translate(82.017 311.216)" fill="#95b9d9"/>
      <rect id="Retângulo_133" data-name="Retângulo 133" width="19.19" height="2.961" transform="translate(82.017 316.675)" fill="#95b9d9"/>
      <rect id="Retângulo_134" data-name="Retângulo 134" width="19.19" height="2.957" transform="translate(82.017 322.132)" fill="#95b9d9"/>
      <rect id="Retângulo_135" data-name="Retângulo 135" width="19.19" height="2.953" transform="translate(82.017 327.592)" fill="#95b9d9"/>
      <rect id="Retângulo_136" data-name="Retângulo 136" width="19.19" height="2.953" transform="translate(82.017 333.052)" fill="#95b9d9"/>
      <rect id="Retângulo_137" data-name="Retângulo 137" width="19.19" height="2.957" transform="translate(82.017 338.508)" fill="#95b9d9"/>
      <rect id="Retângulo_138" data-name="Retângulo 138" width="19.19" height="2.953" transform="translate(82.017 343.968)" fill="#95b9d9"/>
      <rect id="Retângulo_139" data-name="Retângulo 139" width="19.19" height="2.954" transform="translate(82.017 349.424)" fill="#95b9d9"/>
      <rect id="Retângulo_140" data-name="Retângulo 140" width="19.19" height="2.957" transform="translate(82.017 354.88)" fill="#95b9d9"/>
      <rect id="Retângulo_141" data-name="Retângulo 141" width="19.19" height="2.957" transform="translate(82.017 360.34)" fill="#95b9d9"/>
      <rect id="Retângulo_142" data-name="Retângulo 142" width="19.19" height="2.953" transform="translate(82.017 365.8)" fill="#95b9d9"/>
      <rect id="Retângulo_143" data-name="Retângulo 143" width="19.19" height="2.957" transform="translate(82.017 371.256)" fill="#95b9d9"/>
      <rect id="Retângulo_144" data-name="Retângulo 144" width="84.24" height="225.721" transform="translate(101.207 148.492)" fill="#95b9d9"/>
      <path id="Caminho_45" data-name="Caminho 45" d="M0,0,55.095.767l.029,2.069L.029,2.069Z" transform="translate(29.407 369.595) rotate(-41.386)" fill="#95b9d9"/>
      <path id="Caminho_46" data-name="Caminho 46" d="M0,0,2.067.028l.887,65.644L.887,65.645Z" transform="translate(15.882 332.835) rotate(-52.523)" fill="#95b9d9"/>
      <path id="Caminho_47" data-name="Caminho 47" d="M0,0,2.064.026l.911,74.137L.911,74.137Z" transform="matrix(0.513, -0.858, 0.858, 0.513, 5.322, 292.702)" fill="#95b9d9"/>
      <path id="Caminho_48" data-name="Caminho 48" d="M0,0,68.173.856,68.2,2.915.026,2.059Z" transform="translate(14.343 328.179) rotate(-32.041)" fill="#95b9d9"/>
      <path id="Caminho_25" data-name="Caminho 25" d="M507.714,353.308l-67.363-40.934,1.114-1.739,67.367,40.941Z" transform="translate(-438.304 -63.057)" fill="#95b9d9"/>
      <path id="Caminho_49" data-name="Caminho 49" d="M0,0,77.322.967l.026,2.064L.026,2.064Z" transform="translate(5.178 287.496) rotate(-31.786)" fill="#95b9d9"/>
      <path id="Caminho_26" data-name="Caminho 26" d="M506.435,338.783,441.16,302.057l1.049-1.773,65.283,36.729Z" transform="translate(-435.941 -92.181)" fill="#95b9d9"/>
      <path id="Caminho_27" data-name="Caminho 27" d="M441.406,368.02l-1.046-1.776,65.961-36.413-52.964-38.294,1.253-1.643,55.561,40.167Z" transform="translate(-438.278 -121.414)" fill="#95b9d9"/>
      <path id="Caminho_50" data-name="Caminho 50" d="M0,0,74.621.929l.026,2.064L.026,2.064Z" transform="translate(5.326 206.66) rotate(-31.549)" fill="#95b9d9"/>
      <path id="Caminho_51" data-name="Caminho 51" d="M0,0,63.06.78l.026,2.06L.026,2.06Z" transform="matrix(0.855, -0.518, 0.518, 0.855, 15.121, 165.868)" fill="#95b9d9"/>
      <path id="Caminho_52" data-name="Caminho 52" d="M0,0,2.075.029l.694,49.52L.694,49.52Z" transform="translate(31.951 134.056) rotate(-46.649)" fill="#95b9d9"/>
    </g>
    <rect id="Retângulo_153" data-name="Retângulo 153" width="28.516" height="136.121" transform="translate(875.892 543.866)" fill="#809fba"/>
  </g>
</svg>
