<svg xmlns="http://www.w3.org/2000/svg" width="66" height="66" viewBox="0 0 66 66">
  <path id="Icon_material-exit-to-app" data-name="Icon material-exit-to-app" d="M30.5,50.663l5.17,5.17L54,37.5,35.667,19.167l-5.17,5.17,9.46,9.5H4.5v7.333H39.957l-9.46,9.5ZM63.167,4.5H11.833A7.331,7.331,0,0,0,4.5,11.833V26.5h7.333V11.833H63.167V63.167H11.833V48.5H4.5V63.167A7.331,7.331,0,0,0,11.833,70.5H63.167A7.355,7.355,0,0,0,70.5,63.167V11.833A7.355,7.355,0,0,0,63.167,4.5Z" transform="translate(-4.5 -4.5)" fill="#707070" opacity="0.3"/>
</svg>
