<svg id="Layer_1" data-name="Layer 1" xmlns="http://www.w3.org/2000/svg" viewBox="0 0 497 567"><defs><style>.cls-1{fill:#fff;}.cls-2{fill:#0073a7;}.cls-3{fill:#e9d5f5;}</style></defs><g id="Exemplo_-_Hero-BG" data-name="Exemplo - Hero-BG"><rect id="Retângulo_7-2" data-name="Retângulo 7-2" class="cls-1" x="46.34" y="1.96" width="451" height="565" rx="31"/><g id="Grupo_6" data-name="Grupo 6"><g id="Grupo_4" data-name="Grupo 4"><circle id="Elipse_1" data-name="Elipse 1" class="cls-2" cx="46.34" cy="101.96" r="46"/><path id="Icon_awesome-pills" data-name="Icon awesome-pills" class="cls-1" d="M31,81.7a10,10,0,0,0-10,10v20a10,10,0,0,0,20,0v-20a10,10,0,0,0-10-10Zm4.29,20H26.68v-10a4.29,4.29,0,0,1,8.58,0Zm12.48-2.65a.73.73,0,0,0-1,0l-.06.07A14.2,14.2,0,0,0,66.49,119a.72.72,0,0,0,.15-1l-.07-.08Zm20.52-1.7a14.21,14.21,0,0,0-18.43-1.42.72.72,0,0,0-.15,1l.08.09,18.82,18.83a.73.73,0,0,0,1,0l.06-.07a14.23,14.23,0,0,0-1.42-18.44Z"/></g><g id="Grupo_5" data-name="Grupo 5"><rect id="Retângulo_8" data-name="Retângulo 8" class="cls-3" x="111.34" y="81.96" width="295" height="16" rx="7"/><rect id="Retângulo_9" data-name="Retângulo 9" class="cls-3" x="111.34" y="104.96" width="103" height="16" rx="7"/><rect id="Retângulo_10" data-name="Retângulo 10" class="cls-3" x="386.34" y="104.96" width="20" height="19" rx="7"/><rect id="Retângulo_11" data-name="Retângulo 11" class="cls-3" x="361.34" y="104.96" width="19" height="19" rx="7"/></g></g><g id="Grupo_6-2" data-name="Grupo 6-2"><g id="Grupo_4-2" data-name="Grupo 4-2"><circle id="Elipse_1-2" data-name="Elipse 1-2" class="cls-2" cx="46.34" cy="218.96" r="46"/><path id="Icon_awesome-pills-2" data-name="Icon awesome-pills-2" class="cls-1" d="M31,198.57a10,10,0,0,0-10,10v20a10,10,0,0,0,20,0v-20a10,10,0,0,0-10-10Zm4.29,20H26.68v-10a4.29,4.29,0,0,1,8.58,0Zm12.48-2.65a.73.73,0,0,0-1,0l-.06.07a14.2,14.2,0,0,0,19.85,19.86.72.72,0,0,0,.15-1l-.07-.08Zm20.52-1.7a14.21,14.21,0,0,0-18.43-1.42.72.72,0,0,0-.15,1l.08.09,18.82,18.83a.73.73,0,0,0,1,0l.06-.07a14.23,14.23,0,0,0-1.42-18.44Z"/></g><g id="Grupo_5-2" data-name="Grupo 5-2"><rect id="Retângulo_8-2" data-name="Retângulo 8-2" class="cls-3" x="111.34" y="198.96" width="295" height="16" rx="7"/><rect id="Retângulo_9-2" data-name="Retângulo 9-2" class="cls-3" x="111.34" y="220.96" width="103" height="17" rx="7"/><rect id="Retângulo_10-2" data-name="Retângulo 10-2" class="cls-3" x="386.34" y="220.96" width="20" height="20" rx="7"/><rect id="Retângulo_11-2" data-name="Retângulo 11-2" class="cls-3" x="361.34" y="220.96" width="19" height="20" rx="7"/></g></g><g id="Grupo_6-3" data-name="Grupo 6-3"><g id="Grupo_4-3" data-name="Grupo 4-3"><circle id="Elipse_1-3" data-name="Elipse 1-3" class="cls-2" cx="46.34" cy="335.96" r="46"/><path id="Icon_awesome-pills-3" data-name="Icon awesome-pills-3" class="cls-1" d="M31,315.44a10,10,0,0,0-10,10v20a10,10,0,0,0,20,0v-20a10,10,0,0,0-10-10Zm4.29,20H26.68v-10a4.29,4.29,0,0,1,8.58,0Zm12.48-2.65a.73.73,0,0,0-1,0l-.06.07a14.2,14.2,0,0,0,19.85,19.86.72.72,0,0,0,.15-1l-.07-.08Zm20.52-1.7a14.21,14.21,0,0,0-18.43-1.42.72.72,0,0,0-.15,1l.08.09L68.58,349.6a.73.73,0,0,0,1,0l.06-.07a14.23,14.23,0,0,0-1.42-18.44Z"/></g><g id="Grupo_5-3" data-name="Grupo 5-3"><rect id="Retângulo_8-3" data-name="Retângulo 8-3" class="cls-3" x="111.34" y="314.96" width="295" height="17" rx="7"/><rect id="Retângulo_9-3" data-name="Retângulo 9-3" class="cls-3" x="111.34" y="337.96" width="103" height="17" rx="7"/><rect id="Retângulo_10-3" data-name="Retângulo 10-3" class="cls-3" x="386.34" y="337.96" width="20" height="19" rx="7"/><rect id="Retângulo_11-3" data-name="Retângulo 11-3" class="cls-3" x="361.34" y="337.96" width="19" height="19" rx="7"/></g></g></g></svg>