<svg id="Logo" xmlns="http://www.w3.org/2000/svg" width="331" height="76.764" viewBox="0 0 331 76.764">
  <path id="Icon_map-health" data-name="Icon map-health" d="M73.484,24.975a1.52,1.52,0,0,0-1.516-1.516H52.261a1.52,1.52,0,0,1-1.516-1.516V2.236A1.52,1.52,0,0,0,49.229.72H24.975a1.52,1.52,0,0,0-1.516,1.516V21.943a1.52,1.52,0,0,1-1.516,1.516H2.236A1.52,1.52,0,0,0,.72,24.975V49.229a1.52,1.52,0,0,0,1.516,1.516H21.943a1.52,1.52,0,0,1,1.516,1.516V71.968a1.52,1.52,0,0,0,1.516,1.516H49.229a1.52,1.52,0,0,0,1.516-1.516V52.261a1.52,1.52,0,0,1,1.516-1.516H71.968a1.52,1.52,0,0,0,1.516-1.516Z" transform="translate(-0.72 3.28)" fill="#0073a7"/>
  <text id="myReceita" transform="translate(78)" fill="#707070" font-size="50" font-family="SegoeUI, Segoe UI"><tspan x="0" y="54">myReceita</tspan></text>
</svg>
